<?xml version="1.0" encoding="UTF-8" standalone="no"?>
<svg width="2000px" height="800px" viewBox="0 0 2000 800" version="1.1" xmlns="http://www.w3.org/2000/svg" xmlns:xlink="http://www.w3.org/1999/xlink" style="background: #57646D;">
    <!-- Generator: Sketch 39.1 (31720) - http://www.bohemiancoding.com/sketch -->
    <title>Artboard</title>
    <desc>Created with Sketch.</desc>
    <defs>
        <polygon id="path-1" points="0 260.768794 199.604255 260.768794 199.604255 0 0 0"></polygon>
        <polygon id="path-3" points="0 260.768794 199.604255 260.768794 199.604255 0 0 0"></polygon>
    </defs>
    <g id="Page-1" stroke="none" stroke-width="1" fill="none" fill-rule="evenodd">
        <g id="Artboard">
            <rect id="Rectangle-Copy" fill="#192756" x="0" y="400" width="2000" height="400"></rect>
            <rect id="Rectangle-Copy-2" fill="#CC1919" x="0" y="0" width="2000" height="400"></rect>
            <g id="Page-1" transform="translate(900.000000, 470.000000)">
                <path d="M90.8099291,99.1646809 L80.9801418,99.1646809 L58.0156028,93.4341844 C58.8524823,90.0299291 60.0865248,86.7817021 61.6893617,83.7604255 L90.8099291,99.1646809 L90.8099291,99.1646809 Z" id="Fill-1" fill="#FFFFFF"></path>
                <path d="M142.880709,104.029504 C142.85234,107.575603 142.412624,111.008227 141.589929,114.299007 C140.75305,117.703262 139.490638,120.937305 137.887801,123.958582 C136.256596,127.064965 134.242411,129.930213 131.930355,132.525957 C129.616879,135.107518 126.994184,137.419574 124.114752,139.377021 C121.306241,141.320284 118.228227,142.937305 114.98,144.157163 C111.774326,145.362837 108.384255,146.199716 104.850922,146.611064 C103.20695,146.809645 101.504823,146.908936 99.802695,146.908936 C97.9870922,146.908936 96.1998582,146.795461 94.4551773,146.582695 C90.9658156,146.142979 87.6041135,145.291915 84.4409929,144.086241 C81.1643972,142.838014 78.0721986,141.192624 75.2495035,139.222411 C72.3700709,137.220993 69.7601418,134.894752 67.4622695,132.270638 C65.1785816,129.689078 63.2069504,126.82383 61.6041135,123.745816 C60.0296454,120.724539 58.7814184,117.476312 57.9587234,114.086241 C57.1643972,110.809645 56.7388652,107.377021 56.7388652,103.845106 L56.7388652,103.689078 L85.2778723,103.731631 L91.8594326,108.511773 L86.9516312,123.63234 L99.802695,114.284823 L112.65234,123.63234 L107.745957,108.511773 L114.001277,103.972766 L142.880709,104.029504 Z" id="Fill-3" fill="#FFFFFF"></path>
                <path d="M95.4619858,97.4055319 L94.8946099,99.1643972 L94.5825532,99.1643972 L67.646383,75.192766 C69.9584397,72.5970213 72.5825532,70.2849645 75.4478014,68.3133333 L95.4619858,97.4055319 Z" id="Fill-5" fill="#FFFFFF"></path>
                <path d="M98.0862411,89.3631206 L98.0862411,89.377305 L96.3273759,94.7531915 L84.5968794,63.5333333 C87.8025532,62.3134752 91.1784397,61.4765957 94.7103546,61.0652482 L98.0862411,89.3631206 Z" id="Fill-7" fill="#FFFFFF"></path>
                <path d="M115.207376,63.6039716 L103.264113,94.6819858 L101.632908,89.689078 L105.191773,61.1075177 C108.681135,61.5330496 112.044255,62.3841135 115.207376,63.6039716" id="Fill-9" fill="#FFFFFF"></path>
                <path d="M132.171773,75.4197163 L105.205816,99.1643972 L104.71078,99.1643972 L104.171773,97.5190071 L124.398723,68.4835461 C127.263972,70.4693617 129.873901,72.8097872 132.171773,75.4197163" id="Fill-11" fill="#FFFFFF"></path>
                <path d="M141.660426,93.6321986 L118.766809,99.1641135 L108.824965,99.1641135 L138.02922,83.9584397 C139.603688,86.9939007 140.83773,90.2421277 141.660426,93.6321986" id="Fill-13" fill="#FFFFFF"></path>
                <mask id="mask-2" fill="white">
                    <use xlink:href="#path-1"></use>
                </mask>
                <g id="Clip-16"></g>
                <polygon id="Fill-15" fill="#FFFFFF" mask="url(#mask-2)" points="0 51.6950355 199.604255 51.6950355 199.604255 39.4553191 0 39.4553191"></polygon>
                <polygon id="Fill-17" fill="#FFFFFF" mask="url(#mask-2)" points="0 12.2397163 199.604255 12.2397163 199.604255 4.03144815e-14 0 4.03144815e-14"></polygon>
                <path d="M60.9679433,29.0302128 L59.3906383,23.6429787 L57.7878014,29.0302128 L60.9679433,29.0302128 Z M61.3097872,17.0982979 C62.1849645,20.0429787 63.0530496,22.9763121 63.9112057,25.9025532 C64.7693617,28.8287943 65.6374468,31.7635461 66.5126241,34.7068085 C66.5480851,34.7947518 66.5168794,34.8770213 66.4204255,34.9564539 C66.3239716,35.0344681 66.2246809,35.0741844 66.1182979,35.0741844 L63.1225532,35.0741844 C63.0175887,35.0741844 62.9211348,35.0344681 62.8331915,34.9564539 C62.7452482,34.8770213 62.6842553,34.7947518 62.6502128,34.7068085 L62.0190071,32.5777305 L56.7367376,32.5777305 L56.1055319,34.7068085 C56.0700709,34.7947518 56.009078,34.8770213 55.9211348,34.9564539 C55.8346099,35.0344681 55.738156,35.0741844 55.6331915,35.0741844 L52.6360284,35.0741844 C52.5324823,35.0741844 52.4303546,35.0344681 52.3353191,34.9564539 C52.2388652,34.8770213 52.2076596,34.7947518 52.2431206,34.7068085 L57.4459574,17.0982979 L57.4459574,17.072766 C57.550922,16.8273759 57.6743262,16.7053901 57.8133333,16.7053901 L58.9707801,16.7053901 L59.7849645,16.7053901 L60.9409929,16.7053901 C61.0984397,16.7053901 61.221844,16.8273759 61.3097872,17.072766 L61.3097872,17.0982979 Z" id="Fill-18" fill="#FFFFFF" mask="url(#mask-2)"></path>
                <path d="M78.4699291,20.5680851 C78.4004255,20.5680851 78.3479433,20.5950355 78.3124823,20.6475177 L77.8656738,21.0659574 C77.8131915,21.1184397 77.7876596,21.170922 77.7876596,21.2234043 L77.7876596,21.2758865 L77.7876596,30.6347518 C77.7876596,30.687234 77.8131915,30.748227 77.8656738,30.8177305 L78.2330496,31.1851064 L81.282695,31.1851064 L81.6500709,30.8177305 C81.7025532,30.7652482 81.7295035,30.7042553 81.7295035,30.6347518 L81.7295035,21.2758865 L81.7295035,21.2234043 C81.7295035,21.170922 81.7025532,21.1184397 81.6500709,21.0659574 L81.2302128,20.6475177 C81.1777305,20.5950355 81.1153191,20.5680851 81.0458156,20.5680851 L78.4699291,20.5680851 Z M85.5919149,32.6304965 C85.5919149,32.7184397 85.5834043,32.7978723 85.5649645,32.8673759 C85.5479433,32.9368794 85.5266667,33.0078014 85.5011348,33.077305 C85.4741844,33.148227 85.4160284,33.2262411 85.3295035,33.3141844 L83.8316312,34.7851064 C83.6912057,34.9255319 83.5422695,35.0134752 83.3848227,35.0475177 C83.3153191,35.0659574 83.2443972,35.0744681 83.1748936,35.0744681 L76.3678014,35.0744681 C76.2798582,35.0744681 76.2004255,35.0659574 76.130922,35.0475177 C75.9734752,35.0134752 75.824539,34.9255319 75.6841135,34.7851064 L74.2131915,33.3141844 C74.072766,33.1737589 73.9848227,33.0248227 73.9493617,32.8673759 C73.9323404,32.7978723 73.9238298,32.7184397 73.9238298,32.6304965 L73.9238298,19.1496454 C73.9238298,19.0787234 73.9323404,19.0092199 73.9493617,18.9382979 C73.9848227,18.7638298 74.072766,18.606383 74.2131915,18.4659574 L75.6841135,16.993617 C75.824539,16.8531915 75.9734752,16.7666667 76.130922,16.7312057 C76.2004255,16.7141844 76.2798582,16.7042553 76.3678014,16.7042553 L83.1479433,16.7042553 C83.2174468,16.7042553 83.2883688,16.7141844 83.3578723,16.7312057 C83.5337589,16.7666667 83.6912057,16.8531915 83.8316312,16.993617 L85.3295035,18.4659574 C85.4160284,18.5539007 85.4741844,18.6361702 85.5011348,18.7156028 C85.5266667,18.7950355 85.5479433,18.8687943 85.5649645,18.9382979 C85.5834043,19.0092199 85.5919149,19.0787234 85.5919149,19.1496454 L85.5919149,32.6304965 Z" id="Fill-19" fill="#FFFFFF" mask="url(#mask-2)"></path>
                <path d="M97.6278014,24.4313475 L100.335603,24.4313475 L100.388085,24.4313475 C100.439149,24.4313475 100.49305,24.4043972 100.545532,24.3519149 L100.99234,23.9348936 C101.009362,23.9008511 101.026383,23.878156 101.044823,23.8696454 C101.061844,23.8611348 101.070355,23.8398582 101.070355,23.8043972 L101.070355,23.726383 L101.070355,21.2724823 L101.070355,21.22 C101.070355,21.2029787 101.061844,21.1859574 101.044823,21.1689362 C101.026383,21.1504965 101.009362,21.1249645 100.99234,21.0895035 L100.545532,20.6469504 C100.510071,20.6285106 100.478865,20.6114894 100.453333,20.5944681 C100.426383,20.5774468 100.405106,20.5675177 100.388085,20.5675177 L100.335603,20.5675177 L97.6278014,20.5675177 L97.6278014,24.4313475 Z M104.932766,25.8242553 L104.907234,25.8497872 L104.932766,25.8497872 C104.932766,25.9377305 104.925674,26.0171631 104.907234,26.0866667 C104.871773,26.2441135 104.785248,26.3930496 104.644823,26.5334752 L103.172482,28.0313475 C103.033475,28.171773 102.87461,28.2597163 102.700142,28.2937589 C102.62922,28.3121986 102.559716,28.3121986 102.490213,28.2937589 L97.6278014,28.2937589 L97.6278014,34.6809929 C97.6278014,34.7689362 97.5895035,34.8512057 97.5100709,34.9292199 C97.4306383,35.0086525 97.3384397,35.0483688 97.2334752,35.0483688 L94.132766,35.0483688 C94.0278014,35.0483688 93.9398582,35.0086525 93.8703546,34.9292199 C93.7994326,34.8512057 93.7653901,34.7689362 93.7653901,34.6809929 L93.7653901,17.0455319 C93.7653901,16.8015603 93.8873759,16.678156 94.132766,16.678156 L102.490213,16.678156 C102.559716,16.678156 102.62922,16.6880851 102.700142,16.7051064 C102.769645,16.7221277 102.844823,16.7448227 102.922837,16.7703546 C103.00227,16.797305 103.085957,16.8540426 103.172482,16.9419858 L104.644823,18.4384397 C104.785248,18.5802837 104.871773,18.7377305 104.907234,18.9121986 C104.925674,18.9831206 104.932766,19.0526241 104.932766,19.1221277 L104.932766,25.8242553 Z" id="Fill-20" fill="#FFFFFF" mask="url(#mask-2)"></path>
                <path d="M124.695887,17.0724823 L124.695887,34.7065248 C124.695887,34.9519149 124.572482,35.0739007 124.327092,35.0739007 L121.200851,35.0739007 C121.112908,35.0739007 121.02922,35.0398582 120.951206,34.9689362 C120.873191,34.8994326 120.832057,34.8114894 120.832057,34.7065248 L120.832057,27.8214184 L116.890213,27.8214184 L116.890213,34.7065248 C116.890213,34.8114894 116.851915,34.8994326 116.772482,34.9689362 C116.69305,35.0398582 116.61078,35.0739007 116.522837,35.0739007 L113.395177,35.0739007 C113.149787,35.0739007 113.026383,34.9519149 113.026383,34.7065248 L113.026383,17.0724823 C113.026383,16.8270922 113.149787,16.7051064 113.395177,16.7051064 L116.522837,16.7051064 C116.61078,16.7051064 116.69305,16.7405674 116.772482,16.8100709 C116.851915,16.8795745 116.890213,16.9675177 116.890213,17.0724823 L116.890213,23.9575887 L120.832057,23.9575887 L120.832057,17.0724823 C120.832057,16.9675177 120.873191,16.8795745 120.951206,16.8100709 C121.02922,16.7405674 121.112908,16.7051064 121.200851,16.7051064 L124.327092,16.7051064 C124.572482,16.7051064 124.695887,16.8270922 124.695887,17.0724823" id="Fill-21" fill="#FFFFFF" mask="url(#mask-2)"></path>
                <path d="M145.983546,34.6804255 C146.017589,34.7853901 145.992057,34.8775887 145.904113,34.9556028 C145.81617,35.0350355 145.719716,35.0747518 145.614752,35.0747518 L142.250213,35.0747518 C142.146667,35.0747518 142.045957,35.0350355 141.948085,34.9556028 C141.85305,34.8775887 141.786383,34.7853901 141.75234,34.6804255 L139.176454,29.5825532 L136.626099,34.6804255 C136.592057,34.7853901 136.526809,34.8775887 136.430355,34.9556028 C136.333901,35.0350355 136.233191,35.0747518 136.128227,35.0747518 L132.765106,35.0747518 C132.658723,35.0747518 132.56227,35.0350355 132.475745,34.9556028 C132.386383,34.8775887 132.360851,34.7853901 132.396312,34.6804255 C132.430355,34.575461 132.465816,34.504539 132.501277,34.4704965 L136.994894,25.2194326 L132.973617,17.1782979 C132.939574,17.1428369 132.921135,17.1073759 132.921135,17.0719149 C132.887092,16.9853901 132.912624,16.9017021 133.000567,16.8236879 C133.087092,16.7442553 133.184965,16.704539 133.289929,16.704539 L136.575035,16.704539 C136.678582,16.704539 136.758014,16.74 136.810496,16.8095035 C136.862979,16.8804255 136.915461,16.9669504 136.969362,17.0719149 L139.176454,21.0151773 L141.409078,17.0719149 C141.46156,16.9669504 141.515461,16.8804255 141.567943,16.8095035 C141.620426,16.74 141.69844,16.704539 141.804823,16.704539 L145.088511,16.704539 C145.193475,16.704539 145.291348,16.7442553 145.377872,16.8236879 C145.465816,16.9017021 145.491348,16.9853901 145.457305,17.0719149 C145.457305,17.1073759 145.438865,17.1428369 145.404823,17.1782979 L141.383546,25.2194326 L145.878582,34.4704965 C145.912624,34.504539 145.948085,34.575461 145.983546,34.6804255" id="Fill-22" fill="#FFFFFF" mask="url(#mask-2)"></path>
                <path d="M199.604539,81.6080851 L179.544965,81.6080851 C180.990355,86.9158865 181.919433,92.4350355 182.278298,98.1031206 C187.166241,99.4591489 194.254184,101.371206 199.604539,102.596738 L199.604539,119.416596 C193.13078,117.471915 184.766241,114.957021 181.79461,114.054894 C181.139291,119.364113 179.973333,124.504539 178.361986,129.454894 C184.091064,131.663404 192.659858,134.825106 199.604539,136.805248 L199.604539,154.911631 C191.984681,152.337163 179.333617,147.701702 172.536454,143.09461 C170.031489,147.782553 167.088227,152.198156 163.750638,156.288936 C169.479716,160.965532 180.543546,168.419433 199.571915,175.86766 C199.386099,182.260567 198.596028,188.497447 197.26695,194.534326 C192.44,192.413759 181.997447,187.507376 171.547801,180.596738 C160.946383,173.589645 155.08539,169.243546 152.783262,167.490355 C149.796028,170.032199 146.622979,172.354184 143.296738,174.447801 C149.953475,183.671915 167.404539,205.071915 191.16766,213.192482 C188.691064,218.843546 185.692482,224.21234 182.234326,229.25773 C173.553475,225.026525 161.163404,218.000993 152.275461,208.847801 C143.664113,199.982553 135.404539,189.05773 129.892482,181.296028 C126.825816,182.531489 123.682553,183.592482 120.449929,184.44922 L132.204539,205.781135 L116.140709,217.389645 L98.6825532,190.233617 L81.2130496,217.389645 L65.1478014,205.781135 L76.9038298,184.44922 C73.6712057,183.592482 70.5180142,182.531489 67.4612766,181.296028 C61.9492199,189.05773 53.6896454,199.982553 45.0782979,208.847801 C36.7478014,217.42227 25.3506383,224.134326 16.8017021,228.425106 C13.4456738,223.423688 10.5378723,218.097447 8.1293617,212.501702 C30.9052482,203.905957 47.5747518,183.416596 54.0570213,174.447801 C50.7208511,172.354184 47.5492199,170.023688 44.5605674,167.490355 C42.2584397,169.252057 36.3960284,173.589645 25.8059574,180.596738 C16.6612766,186.650638 7.50808511,191.159858 2.13787234,193.62227 C0.868368794,187.596738 0.13929078,181.359858 0.0173049645,174.982553 C17.6782979,167.833617 28.0939007,160.781135 33.5946099,156.288936 C30.2641135,152.198156 27.3222695,147.782553 24.8087943,143.09461 C18.6329078,147.273333 7.67404255,151.477589 0.000283687943,154.141418 L0.000283687943,136.141418 C6.48255319,134.159858 13.8768794,131.426525 19.0002837,129.454894 C17.3804255,124.504539 16.2229787,119.364113 15.5577305,114.054894 C12.9208511,114.852057 6.0258156,116.927234 0.000283687943,118.741418 L0.000283687943,102.071915 C4.97617021,100.861986 10.8442553,99.2761702 15.075461,98.1031206 C15.4343262,92.4350355 16.3634043,86.9158865 17.8087943,81.6080851 L0.000283687943,81.6080851 L0.000283687943,64.5598582 L56.6683688,64.5598582 C47.3563121,74.8719149 41.688227,88.5286525 41.688227,103.507376 C41.688227,135.605248 67.7052482,161.623688 99.8031206,161.623688 C131.900993,161.623688 157.915177,135.605248 157.915177,103.507376 C157.915177,88.5286525 152.247092,74.8719149 142.936454,64.5598582 L199.604539,64.5598582 L199.604539,81.6080851 Z" id="Fill-23" fill="#FFFFFF" mask="url(#mask-2)"></path>
                <polygon id="Fill-24" fill="#FFFFFF" mask="url(#mask-2)" points="11.0524823 15.7558865 13.3531915 22.8395745 20.8028369 22.8395745 14.777305 27.2182979 17.0780142 34.3005674 11.0524823 29.9232624 5.02695035 34.3005674 7.32765957 27.2182979 1.30070922 22.8395745 8.75177305 22.8395745"></polygon>
                <polygon id="Fill-25" fill="#FFFFFF" mask="url(#mask-2)" points="38.6121986 15.7558865 40.9143262 22.8395745 48.3611348 22.8395745 42.3356028 27.2182979 44.6391489 34.3005674 38.6121986 29.9232624 32.5866667 34.3005674 34.8887943 27.2182979 28.861844 22.8395745 36.3086525 22.8395745"></polygon>
                <polygon id="Fill-26" fill="#FFFFFF" mask="url(#mask-2)" points="162.297021 15.7558865 164.59773 22.8395745 172.047376 22.8395745 166.020426 27.2182979 168.322553 34.3005674 162.297021 29.9232624 156.271489 34.3005674 158.572199 27.2182979 152.546667 22.8395745 159.994894 22.8395745"></polygon>
                <polygon id="Fill-27" fill="#FFFFFF" mask="url(#mask-2)" points="189.856879 15.7558865 192.157589 22.8395745 199.604397 22.8395745 193.578865 27.2182979 195.882411 34.3005674 189.856879 29.9232624 183.831348 34.3005674 186.132057 27.2182979 180.106525 22.8395745 187.553333 22.8395745"></polygon>
                <path d="M80.2019858,231.780567 C78.5452482,230.220284 76.2516312,229.258582 73.7197163,229.258582 L65.9097872,229.258582 L66.7055319,227.888369 L71.0161702,220.479858 C69.328227,219.156454 67.6232624,217.898298 65.7537589,216.755035 L58.667234,228.939433 L58.4828369,229.258582 L55.750922,229.258582 L52.3608511,229.258582 L34.3920567,229.258582 C31.8601418,229.258582 29.5651064,230.220284 27.9083688,231.780567 C26.244539,233.340851 25.2190071,235.48695 25.2190071,237.869929 C25.2190071,240.224539 26.2275177,242.363546 27.8558865,243.913901 C27.9622695,241.688369 28.9594326,239.674184 30.5367376,238.203262 C32.1920567,236.642979 34.4870922,235.67844 37.0204255,235.67844 L47.4104965,235.67844 L54.7480851,235.67844 L47.9296454,247.403262 C46.6558865,249.593333 46.3353191,252.06 46.8502128,254.275603 C47.3622695,256.498298 48.7012766,258.461418 50.7622695,259.658582 C52.7977305,260.845816 55.1523404,261.048652 57.3126241,260.420284 C55.4417021,259.211773 54.2034043,257.335177 53.7225532,255.231631 C53.2076596,253.016028 53.528227,250.547943 54.8005674,248.360709 L60.0246809,239.376312 L62.1750355,235.67844 L71.0913475,235.67844 C73.6232624,235.67844 75.9182979,236.642979 77.573617,238.203262 C79.150922,239.674184 80.1480851,241.688369 80.2558865,243.913901 C81.8842553,242.363546 82.8913475,240.224539 82.8913475,237.869929 C82.8913475,235.48695 81.867234,233.340851 80.2019858,231.780567" id="Fill-28" fill="#FFFFFF" mask="url(#mask-2)"></path>
                <path d="M117.262979,231.780567 C118.916879,230.220284 121.213333,229.258582 123.74383,229.258582 L131.553759,229.258582 L130.756596,227.888369 L126.447376,220.479858 C128.133901,219.156454 129.838865,217.898298 131.709787,216.755035 L138.796312,228.939433 L138.982128,229.258582 L141.711206,229.258582 L145.105532,229.258582 L163.072908,229.258582 C165.604823,229.258582 167.899858,230.220284 169.553759,231.780567 C171.217589,233.340851 172.243121,235.48695 172.243121,237.869929 C172.243121,240.224539 171.236028,242.363546 169.606241,243.913901 C169.502695,241.688369 168.504113,239.674184 166.926809,238.203262 C165.272908,236.642979 162.976454,235.67844 160.444539,235.67844 L150.05305,235.67844 L142.715461,235.67844 L149.535319,247.403262 C150.80766,249.593333 151.128227,252.06 150.613333,254.275603 C150.101277,256.498298 148.760851,258.461418 146.702695,259.658582 C144.664397,260.845816 142.311206,261.048652 140.150922,260.420284 C142.021844,259.211773 143.26156,257.335177 143.740993,255.231631 C144.255887,253.016028 143.936738,250.547943 142.662979,248.360709 L137.438865,239.376312 L135.287092,235.67844 L126.37078,235.67844 C123.841702,235.67844 121.545248,236.642979 119.891348,238.203262 C118.312624,239.674184 117.314043,241.688369 117.210496,243.913901 C115.579291,242.363546 114.575035,240.224539 114.575035,237.869929 C114.575035,235.48695 115.596312,233.340851 117.262979,231.780567" id="Fill-29" fill="#FFFFFF" mask="url(#mask-2)"></path>
            </g>
            <g id="Page-1" transform="translate(900.000000, 70.000000)">
                <path d="M90.8099291,99.1646809 L80.9801418,99.1646809 L58.0156028,93.4341844 C58.8524823,90.0299291 60.0865248,86.7817021 61.6893617,83.7604255 L90.8099291,99.1646809 L90.8099291,99.1646809 Z" id="Fill-1" fill="#231F1F"></path>
                <path d="M142.880709,104.029504 C142.85234,107.575603 142.412624,111.008227 141.589929,114.299007 C140.75305,117.703262 139.490638,120.937305 137.887801,123.958582 C136.256596,127.064965 134.242411,129.930213 131.930355,132.525957 C129.616879,135.107518 126.994184,137.419574 124.114752,139.377021 C121.306241,141.320284 118.228227,142.937305 114.98,144.157163 C111.774326,145.362837 108.384255,146.199716 104.850922,146.611064 C103.20695,146.809645 101.504823,146.908936 99.802695,146.908936 C97.9870922,146.908936 96.1998582,146.795461 94.4551773,146.582695 C90.9658156,146.142979 87.6041135,145.291915 84.4409929,144.086241 C81.1643972,142.838014 78.0721986,141.192624 75.2495035,139.222411 C72.3700709,137.220993 69.7601418,134.894752 67.4622695,132.270638 C65.1785816,129.689078 63.2069504,126.82383 61.6041135,123.745816 C60.0296454,120.724539 58.7814184,117.476312 57.9587234,114.086241 C57.1643972,110.809645 56.7388652,107.377021 56.7388652,103.845106 L56.7388652,103.689078 L85.2778723,103.731631 L91.8594326,108.511773 L86.9516312,123.63234 L99.802695,114.284823 L112.65234,123.63234 L107.745957,108.511773 L114.001277,103.972766 L142.880709,104.029504 Z" id="Fill-3" fill="#231F1F"></path>
                <path d="M95.4619858,97.4055319 L94.8946099,99.1643972 L94.5825532,99.1643972 L67.646383,75.192766 C69.9584397,72.5970213 72.5825532,70.2849645 75.4478014,68.3133333 L95.4619858,97.4055319 Z" id="Fill-5" fill="#231F1F"></path>
                <path d="M98.0862411,89.3631206 L98.0862411,89.377305 L96.3273759,94.7531915 L84.5968794,63.5333333 C87.8025532,62.3134752 91.1784397,61.4765957 94.7103546,61.0652482 L98.0862411,89.3631206 Z" id="Fill-7" fill="#231F1F"></path>
                <path d="M115.207376,63.6039716 L103.264113,94.6819858 L101.632908,89.689078 L105.191773,61.1075177 C108.681135,61.5330496 112.044255,62.3841135 115.207376,63.6039716" id="Fill-9" fill="#231F1F"></path>
                <path d="M132.171773,75.4197163 L105.205816,99.1643972 L104.71078,99.1643972 L104.171773,97.5190071 L124.398723,68.4835461 C127.263972,70.4693617 129.873901,72.8097872 132.171773,75.4197163" id="Fill-11" fill="#231F1F"></path>
                <path d="M141.660426,93.6321986 L118.766809,99.1641135 L108.824965,99.1641135 L138.02922,83.9584397 C139.603688,86.9939007 140.83773,90.2421277 141.660426,93.6321986" id="Fill-13" fill="#231F1F"></path>
                <mask id="mask-4" fill="white">
                    <use xlink:href="#path-3"></use>
                </mask>
                <g id="Clip-16"></g>
                <polygon id="Fill-15" fill="#231F1F" mask="url(#mask-4)" points="0 51.6950355 199.604255 51.6950355 199.604255 39.4553191 0 39.4553191"></polygon>
                <polygon id="Fill-17" fill="#231F1F" mask="url(#mask-4)" points="0 12.2397163 199.604255 12.2397163 199.604255 4.03144815e-14 0 4.03144815e-14"></polygon>
                <path d="M60.9679433,29.0302128 L59.3906383,23.6429787 L57.7878014,29.0302128 L60.9679433,29.0302128 Z M61.3097872,17.0982979 C62.1849645,20.0429787 63.0530496,22.9763121 63.9112057,25.9025532 C64.7693617,28.8287943 65.6374468,31.7635461 66.5126241,34.7068085 C66.5480851,34.7947518 66.5168794,34.8770213 66.4204255,34.9564539 C66.3239716,35.0344681 66.2246809,35.0741844 66.1182979,35.0741844 L63.1225532,35.0741844 C63.0175887,35.0741844 62.9211348,35.0344681 62.8331915,34.9564539 C62.7452482,34.8770213 62.6842553,34.7947518 62.6502128,34.7068085 L62.0190071,32.5777305 L56.7367376,32.5777305 L56.1055319,34.7068085 C56.0700709,34.7947518 56.009078,34.8770213 55.9211348,34.9564539 C55.8346099,35.0344681 55.738156,35.0741844 55.6331915,35.0741844 L52.6360284,35.0741844 C52.5324823,35.0741844 52.4303546,35.0344681 52.3353191,34.9564539 C52.2388652,34.8770213 52.2076596,34.7947518 52.2431206,34.7068085 L57.4459574,17.0982979 L57.4459574,17.072766 C57.550922,16.8273759 57.6743262,16.7053901 57.8133333,16.7053901 L58.9707801,16.7053901 L59.7849645,16.7053901 L60.9409929,16.7053901 C61.0984397,16.7053901 61.221844,16.8273759 61.3097872,17.072766 L61.3097872,17.0982979 Z" id="Fill-18" fill="#231F1F" mask="url(#mask-4)"></path>
                <path d="M78.4699291,20.5680851 C78.4004255,20.5680851 78.3479433,20.5950355 78.3124823,20.6475177 L77.8656738,21.0659574 C77.8131915,21.1184397 77.7876596,21.170922 77.7876596,21.2234043 L77.7876596,21.2758865 L77.7876596,30.6347518 C77.7876596,30.687234 77.8131915,30.748227 77.8656738,30.8177305 L78.2330496,31.1851064 L81.282695,31.1851064 L81.6500709,30.8177305 C81.7025532,30.7652482 81.7295035,30.7042553 81.7295035,30.6347518 L81.7295035,21.2758865 L81.7295035,21.2234043 C81.7295035,21.170922 81.7025532,21.1184397 81.6500709,21.0659574 L81.2302128,20.6475177 C81.1777305,20.5950355 81.1153191,20.5680851 81.0458156,20.5680851 L78.4699291,20.5680851 Z M85.5919149,32.6304965 C85.5919149,32.7184397 85.5834043,32.7978723 85.5649645,32.8673759 C85.5479433,32.9368794 85.5266667,33.0078014 85.5011348,33.077305 C85.4741844,33.148227 85.4160284,33.2262411 85.3295035,33.3141844 L83.8316312,34.7851064 C83.6912057,34.9255319 83.5422695,35.0134752 83.3848227,35.0475177 C83.3153191,35.0659574 83.2443972,35.0744681 83.1748936,35.0744681 L76.3678014,35.0744681 C76.2798582,35.0744681 76.2004255,35.0659574 76.130922,35.0475177 C75.9734752,35.0134752 75.824539,34.9255319 75.6841135,34.7851064 L74.2131915,33.3141844 C74.072766,33.1737589 73.9848227,33.0248227 73.9493617,32.8673759 C73.9323404,32.7978723 73.9238298,32.7184397 73.9238298,32.6304965 L73.9238298,19.1496454 C73.9238298,19.0787234 73.9323404,19.0092199 73.9493617,18.9382979 C73.9848227,18.7638298 74.072766,18.606383 74.2131915,18.4659574 L75.6841135,16.993617 C75.824539,16.8531915 75.9734752,16.7666667 76.130922,16.7312057 C76.2004255,16.7141844 76.2798582,16.7042553 76.3678014,16.7042553 L83.1479433,16.7042553 C83.2174468,16.7042553 83.2883688,16.7141844 83.3578723,16.7312057 C83.5337589,16.7666667 83.6912057,16.8531915 83.8316312,16.993617 L85.3295035,18.4659574 C85.4160284,18.5539007 85.4741844,18.6361702 85.5011348,18.7156028 C85.5266667,18.7950355 85.5479433,18.8687943 85.5649645,18.9382979 C85.5834043,19.0092199 85.5919149,19.0787234 85.5919149,19.1496454 L85.5919149,32.6304965 Z" id="Fill-19" fill="#231F1F" mask="url(#mask-4)"></path>
                <path d="M97.6278014,24.4313475 L100.335603,24.4313475 L100.388085,24.4313475 C100.439149,24.4313475 100.49305,24.4043972 100.545532,24.3519149 L100.99234,23.9348936 C101.009362,23.9008511 101.026383,23.878156 101.044823,23.8696454 C101.061844,23.8611348 101.070355,23.8398582 101.070355,23.8043972 L101.070355,23.726383 L101.070355,21.2724823 L101.070355,21.22 C101.070355,21.2029787 101.061844,21.1859574 101.044823,21.1689362 C101.026383,21.1504965 101.009362,21.1249645 100.99234,21.0895035 L100.545532,20.6469504 C100.510071,20.6285106 100.478865,20.6114894 100.453333,20.5944681 C100.426383,20.5774468 100.405106,20.5675177 100.388085,20.5675177 L100.335603,20.5675177 L97.6278014,20.5675177 L97.6278014,24.4313475 Z M104.932766,25.8242553 L104.907234,25.8497872 L104.932766,25.8497872 C104.932766,25.9377305 104.925674,26.0171631 104.907234,26.0866667 C104.871773,26.2441135 104.785248,26.3930496 104.644823,26.5334752 L103.172482,28.0313475 C103.033475,28.171773 102.87461,28.2597163 102.700142,28.2937589 C102.62922,28.3121986 102.559716,28.3121986 102.490213,28.2937589 L97.6278014,28.2937589 L97.6278014,34.6809929 C97.6278014,34.7689362 97.5895035,34.8512057 97.5100709,34.9292199 C97.4306383,35.0086525 97.3384397,35.0483688 97.2334752,35.0483688 L94.132766,35.0483688 C94.0278014,35.0483688 93.9398582,35.0086525 93.8703546,34.9292199 C93.7994326,34.8512057 93.7653901,34.7689362 93.7653901,34.6809929 L93.7653901,17.0455319 C93.7653901,16.8015603 93.8873759,16.678156 94.132766,16.678156 L102.490213,16.678156 C102.559716,16.678156 102.62922,16.6880851 102.700142,16.7051064 C102.769645,16.7221277 102.844823,16.7448227 102.922837,16.7703546 C103.00227,16.797305 103.085957,16.8540426 103.172482,16.9419858 L104.644823,18.4384397 C104.785248,18.5802837 104.871773,18.7377305 104.907234,18.9121986 C104.925674,18.9831206 104.932766,19.0526241 104.932766,19.1221277 L104.932766,25.8242553 Z" id="Fill-20" fill="#231F1F" mask="url(#mask-4)"></path>
                <path d="M124.695887,17.0724823 L124.695887,34.7065248 C124.695887,34.9519149 124.572482,35.0739007 124.327092,35.0739007 L121.200851,35.0739007 C121.112908,35.0739007 121.02922,35.0398582 120.951206,34.9689362 C120.873191,34.8994326 120.832057,34.8114894 120.832057,34.7065248 L120.832057,27.8214184 L116.890213,27.8214184 L116.890213,34.7065248 C116.890213,34.8114894 116.851915,34.8994326 116.772482,34.9689362 C116.69305,35.0398582 116.61078,35.0739007 116.522837,35.0739007 L113.395177,35.0739007 C113.149787,35.0739007 113.026383,34.9519149 113.026383,34.7065248 L113.026383,17.0724823 C113.026383,16.8270922 113.149787,16.7051064 113.395177,16.7051064 L116.522837,16.7051064 C116.61078,16.7051064 116.69305,16.7405674 116.772482,16.8100709 C116.851915,16.8795745 116.890213,16.9675177 116.890213,17.0724823 L116.890213,23.9575887 L120.832057,23.9575887 L120.832057,17.0724823 C120.832057,16.9675177 120.873191,16.8795745 120.951206,16.8100709 C121.02922,16.7405674 121.112908,16.7051064 121.200851,16.7051064 L124.327092,16.7051064 C124.572482,16.7051064 124.695887,16.8270922 124.695887,17.0724823" id="Fill-21" fill="#231F1F" mask="url(#mask-4)"></path>
                <path d="M145.983546,34.6804255 C146.017589,34.7853901 145.992057,34.8775887 145.904113,34.9556028 C145.81617,35.0350355 145.719716,35.0747518 145.614752,35.0747518 L142.250213,35.0747518 C142.146667,35.0747518 142.045957,35.0350355 141.948085,34.9556028 C141.85305,34.8775887 141.786383,34.7853901 141.75234,34.6804255 L139.176454,29.5825532 L136.626099,34.6804255 C136.592057,34.7853901 136.526809,34.8775887 136.430355,34.9556028 C136.333901,35.0350355 136.233191,35.0747518 136.128227,35.0747518 L132.765106,35.0747518 C132.658723,35.0747518 132.56227,35.0350355 132.475745,34.9556028 C132.386383,34.8775887 132.360851,34.7853901 132.396312,34.6804255 C132.430355,34.575461 132.465816,34.504539 132.501277,34.4704965 L136.994894,25.2194326 L132.973617,17.1782979 C132.939574,17.1428369 132.921135,17.1073759 132.921135,17.0719149 C132.887092,16.9853901 132.912624,16.9017021 133.000567,16.8236879 C133.087092,16.7442553 133.184965,16.704539 133.289929,16.704539 L136.575035,16.704539 C136.678582,16.704539 136.758014,16.74 136.810496,16.8095035 C136.862979,16.8804255 136.915461,16.9669504 136.969362,17.0719149 L139.176454,21.0151773 L141.409078,17.0719149 C141.46156,16.9669504 141.515461,16.8804255 141.567943,16.8095035 C141.620426,16.74 141.69844,16.704539 141.804823,16.704539 L145.088511,16.704539 C145.193475,16.704539 145.291348,16.7442553 145.377872,16.8236879 C145.465816,16.9017021 145.491348,16.9853901 145.457305,17.0719149 C145.457305,17.1073759 145.438865,17.1428369 145.404823,17.1782979 L141.383546,25.2194326 L145.878582,34.4704965 C145.912624,34.504539 145.948085,34.575461 145.983546,34.6804255" id="Fill-22" fill="#231F1F" mask="url(#mask-4)"></path>
                <path d="M199.604539,81.6080851 L179.544965,81.6080851 C180.990355,86.9158865 181.919433,92.4350355 182.278298,98.1031206 C187.166241,99.4591489 194.254184,101.371206 199.604539,102.596738 L199.604539,119.416596 C193.13078,117.471915 184.766241,114.957021 181.79461,114.054894 C181.139291,119.364113 179.973333,124.504539 178.361986,129.454894 C184.091064,131.663404 192.659858,134.825106 199.604539,136.805248 L199.604539,154.911631 C191.984681,152.337163 179.333617,147.701702 172.536454,143.09461 C170.031489,147.782553 167.088227,152.198156 163.750638,156.288936 C169.479716,160.965532 180.543546,168.419433 199.571915,175.86766 C199.386099,182.260567 198.596028,188.497447 197.26695,194.534326 C192.44,192.413759 181.997447,187.507376 171.547801,180.596738 C160.946383,173.589645 155.08539,169.243546 152.783262,167.490355 C149.796028,170.032199 146.622979,172.354184 143.296738,174.447801 C149.953475,183.671915 167.404539,205.071915 191.16766,213.192482 C188.691064,218.843546 185.692482,224.21234 182.234326,229.25773 C173.553475,225.026525 161.163404,218.000993 152.275461,208.847801 C143.664113,199.982553 135.404539,189.05773 129.892482,181.296028 C126.825816,182.531489 123.682553,183.592482 120.449929,184.44922 L132.204539,205.781135 L116.140709,217.389645 L98.6825532,190.233617 L81.2130496,217.389645 L65.1478014,205.781135 L76.9038298,184.44922 C73.6712057,183.592482 70.5180142,182.531489 67.4612766,181.296028 C61.9492199,189.05773 53.6896454,199.982553 45.0782979,208.847801 C36.7478014,217.42227 25.3506383,224.134326 16.8017021,228.425106 C13.4456738,223.423688 10.5378723,218.097447 8.1293617,212.501702 C30.9052482,203.905957 47.5747518,183.416596 54.0570213,174.447801 C50.7208511,172.354184 47.5492199,170.023688 44.5605674,167.490355 C42.2584397,169.252057 36.3960284,173.589645 25.8059574,180.596738 C16.6612766,186.650638 7.50808511,191.159858 2.13787234,193.62227 C0.868368794,187.596738 0.13929078,181.359858 0.0173049645,174.982553 C17.6782979,167.833617 28.0939007,160.781135 33.5946099,156.288936 C30.2641135,152.198156 27.3222695,147.782553 24.8087943,143.09461 C18.6329078,147.273333 7.67404255,151.477589 0.000283687943,154.141418 L0.000283687943,136.141418 C6.48255319,134.159858 13.8768794,131.426525 19.0002837,129.454894 C17.3804255,124.504539 16.2229787,119.364113 15.5577305,114.054894 C12.9208511,114.852057 6.0258156,116.927234 0.000283687943,118.741418 L0.000283687943,102.071915 C4.97617021,100.861986 10.8442553,99.2761702 15.075461,98.1031206 C15.4343262,92.4350355 16.3634043,86.9158865 17.8087943,81.6080851 L0.000283687943,81.6080851 L0.000283687943,64.5598582 L56.6683688,64.5598582 C47.3563121,74.8719149 41.688227,88.5286525 41.688227,103.507376 C41.688227,135.605248 67.7052482,161.623688 99.8031206,161.623688 C131.900993,161.623688 157.915177,135.605248 157.915177,103.507376 C157.915177,88.5286525 152.247092,74.8719149 142.936454,64.5598582 L199.604539,64.5598582 L199.604539,81.6080851 Z" id="Fill-23" fill="#231F1F" mask="url(#mask-4)"></path>
                <polygon id="Fill-24" fill="#231F1F" mask="url(#mask-4)" points="11.0524823 15.7558865 13.3531915 22.8395745 20.8028369 22.8395745 14.777305 27.2182979 17.0780142 34.3005674 11.0524823 29.9232624 5.02695035 34.3005674 7.32765957 27.2182979 1.30070922 22.8395745 8.75177305 22.8395745"></polygon>
                <polygon id="Fill-25" fill="#231F1F" mask="url(#mask-4)" points="38.6121986 15.7558865 40.9143262 22.8395745 48.3611348 22.8395745 42.3356028 27.2182979 44.6391489 34.3005674 38.6121986 29.9232624 32.5866667 34.3005674 34.8887943 27.2182979 28.861844 22.8395745 36.3086525 22.8395745"></polygon>
                <polygon id="Fill-26" fill="#231F1F" mask="url(#mask-4)" points="162.297021 15.7558865 164.59773 22.8395745 172.047376 22.8395745 166.020426 27.2182979 168.322553 34.3005674 162.297021 29.9232624 156.271489 34.3005674 158.572199 27.2182979 152.546667 22.8395745 159.994894 22.8395745"></polygon>
                <polygon id="Fill-27" fill="#231F1F" mask="url(#mask-4)" points="189.856879 15.7558865 192.157589 22.8395745 199.604397 22.8395745 193.578865 27.2182979 195.882411 34.3005674 189.856879 29.9232624 183.831348 34.3005674 186.132057 27.2182979 180.106525 22.8395745 187.553333 22.8395745"></polygon>
                <path d="M80.2019858,231.780567 C78.5452482,230.220284 76.2516312,229.258582 73.7197163,229.258582 L65.9097872,229.258582 L66.7055319,227.888369 L71.0161702,220.479858 C69.328227,219.156454 67.6232624,217.898298 65.7537589,216.755035 L58.667234,228.939433 L58.4828369,229.258582 L55.750922,229.258582 L52.3608511,229.258582 L34.3920567,229.258582 C31.8601418,229.258582 29.5651064,230.220284 27.9083688,231.780567 C26.244539,233.340851 25.2190071,235.48695 25.2190071,237.869929 C25.2190071,240.224539 26.2275177,242.363546 27.8558865,243.913901 C27.9622695,241.688369 28.9594326,239.674184 30.5367376,238.203262 C32.1920567,236.642979 34.4870922,235.67844 37.0204255,235.67844 L47.4104965,235.67844 L54.7480851,235.67844 L47.9296454,247.403262 C46.6558865,249.593333 46.3353191,252.06 46.8502128,254.275603 C47.3622695,256.498298 48.7012766,258.461418 50.7622695,259.658582 C52.7977305,260.845816 55.1523404,261.048652 57.3126241,260.420284 C55.4417021,259.211773 54.2034043,257.335177 53.7225532,255.231631 C53.2076596,253.016028 53.528227,250.547943 54.8005674,248.360709 L60.0246809,239.376312 L62.1750355,235.67844 L71.0913475,235.67844 C73.6232624,235.67844 75.9182979,236.642979 77.573617,238.203262 C79.150922,239.674184 80.1480851,241.688369 80.2558865,243.913901 C81.8842553,242.363546 82.8913475,240.224539 82.8913475,237.869929 C82.8913475,235.48695 81.867234,233.340851 80.2019858,231.780567" id="Fill-28" fill="#231F1F" mask="url(#mask-4)"></path>
                <path d="M117.262979,231.780567 C118.916879,230.220284 121.213333,229.258582 123.74383,229.258582 L131.553759,229.258582 L130.756596,227.888369 L126.447376,220.479858 C128.133901,219.156454 129.838865,217.898298 131.709787,216.755035 L138.796312,228.939433 L138.982128,229.258582 L141.711206,229.258582 L145.105532,229.258582 L163.072908,229.258582 C165.604823,229.258582 167.899858,230.220284 169.553759,231.780567 C171.217589,233.340851 172.243121,235.48695 172.243121,237.869929 C172.243121,240.224539 171.236028,242.363546 169.606241,243.913901 C169.502695,241.688369 168.504113,239.674184 166.926809,238.203262 C165.272908,236.642979 162.976454,235.67844 160.444539,235.67844 L150.05305,235.67844 L142.715461,235.67844 L149.535319,247.403262 C150.80766,249.593333 151.128227,252.06 150.613333,254.275603 C150.101277,256.498298 148.760851,258.461418 146.702695,259.658582 C144.664397,260.845816 142.311206,261.048652 140.150922,260.420284 C142.021844,259.211773 143.26156,257.335177 143.740993,255.231631 C144.255887,253.016028 143.936738,250.547943 142.662979,248.360709 L137.438865,239.376312 L135.287092,235.67844 L126.37078,235.67844 C123.841702,235.67844 121.545248,236.642979 119.891348,238.203262 C118.312624,239.674184 117.314043,241.688369 117.210496,243.913901 C115.579291,242.363546 114.575035,240.224539 114.575035,237.869929 C114.575035,235.48695 115.596312,233.340851 117.262979,231.780567" id="Fill-29" fill="#231F1F" mask="url(#mask-4)"></path>
            </g>
        </g>
    </g>
</svg>