<?xml version="1.0" encoding="utf-8"?>
<!-- Generator: Adobe Illustrator 19.2.1, SVG Export Plug-In . SVG Version: 6.00 Build 0)  -->
<svg version="1.1" id="Artwork" xmlns="http://www.w3.org/2000/svg" xmlns:xlink="http://www.w3.org/1999/xlink" x="0px" y="0px"
	 viewBox="0 0 300 300" style="enable-background:new 0 0 300 300;" xml:space="preserve">
<style type="text/css">
	.st0{fill:#231F20;}
	.st1{fill:#FFFFFF;}
</style>
<g id="Logomark">
	<path class="st0" d="M150,25.3C81.1,25.3,25.3,81.1,25.3,150c0,68.9,55.8,124.7,124.7,124.7c68.9,0,124.7-55.8,124.7-124.7
		C274.7,81.1,218.9,25.3,150,25.3 M136,197.5h-11.1v-31.3H136V197.5z M180.7,197.5l-17.5-41.1h-50.8l-3.6-9.8h16v-44h37.4
		c10.1,0,17.7,2.8,22.6,8.3c4.9,5.5,7.4,11.6,7.4,18.2c0,5.1-1.4,9.9-4.1,14.6c-2.7,4.6-7.3,8-13.6,9.9l18.6,44H180.7z M175.4,141.5
		c-3.2,3.5-8.1,5.2-14.7,5.2H136V113h26.3c5.2,0,9.5,1.4,12.9,4.2c3.4,2.8,5.1,6.7,5.1,11.7C180.3,133.9,178.7,138.1,175.4,141.5"/>
	<path class="st1" d="M124.8,166.2H136v31.3h-11.1V166.2z M174.5,153.5l18.6,44h-12.5l-17.5-41.1h-50.8l-3.6-9.8h16v-44h37.4
		c10.1,0,17.7,2.8,22.6,8.3c4.9,5.5,7.4,11.6,7.4,18.2c0,5.1-1.4,9.9-4.1,14.6C185.3,148.2,180.8,151.5,174.5,153.5 M175.4,141.5
		c3.2-3.5,4.8-7.7,4.8-12.7c0-5-1.7-8.9-5.1-11.7c-3.4-2.8-7.7-4.2-12.9-4.2H136v33.7h24.8C167.3,146.7,172.2,145,175.4,141.5"/>
</g>
</svg>
