<?xml version="1.0" encoding="UTF-8" standalone="no"?>
<svg width="2000px" height="800px" viewBox="0 0 2000 800" version="1.1" xmlns="http://www.w3.org/2000/svg" xmlns:xlink="http://www.w3.org/1999/xlink" style="background: #57646D;">
    <!-- Generator: Sketch 39.1 (31720) - http://www.bohemiancoding.com/sketch -->
    <title>Artboard</title>
    <desc>Created with Sketch.</desc>
    <defs></defs>
    <g id="Page-1" stroke="none" stroke-width="1" fill="none" fill-rule="evenodd">
        <g id="Artboard">
            <rect id="Rectangle-Copy" fill="#000000" x="0" y="400" width="2000" height="400"></rect>
            <rect id="Rectangle-Copy-2" fill="#13BA7D" x="0" y="0" width="2000" height="400"></rect>
            <g id="Page-1" transform="translate(785.000000, 491.000000)" fill="#21B57C">
                <path d="M0,0.0002 L0,218.0002 L144,218.0002 L144,109.0002 L109,109.0002 L109,72.0002 L54,72.0002 L54,55.0002 L109,55.0002 L109,37.0002 L35,37.0002 L35,92.0002 L89,92.0002 L89,109.0002 L35,109.0002 L35,181.0002 L109,181.0002 L109,127.0002 L126,127.0002 L126,200.0002 L17,200.0002 L17,19.0002 L126,19.0002 L126,86.9992 L144,86.9992 L144,0.0002 L0,0.0002 Z M54,164.0002 L89,164.0002 L89,127.0002 L54,127.0002 L54,164.0002 Z" id="Fill-1"></path>
                <g id="Group-12" transform="translate(185.000000, 56.000000)">
                    <path d="M42.3104,71.3096 L42.3104,86.3746 C42.3104,99.2206 35.9594,105.5706 23.1114,105.5706 L19.8614,105.5706 C7.1644,105.5706 0.9604,99.2206 0.9604,86.6696 L0.9604,64.9586 L12.4784,64.9586 L12.4784,87.1116 C12.4784,92.4276 14.9904,94.9376 20.3064,94.9376 L22.6694,94.9376 C27.9834,94.9376 30.4954,92.4276 30.4954,87.1116 L30.4954,71.6076 C30.4954,66.4406 28.7244,64.2236 25.3284,61.7136 L10.8564,51.2286 C3.1754,45.7626 0.9604,40.4486 0.9604,32.0306 L0.9604,19.6266 C0.9604,6.7786 7.3094,0.4296 20.1574,0.4296 L23.1114,0.4296 C35.8114,0.4296 42.0124,6.7786 42.0124,19.3306 L42.0124,37.9366 L30.4954,37.9366 L30.4954,18.8886 C30.4954,13.5716 27.9834,11.0626 22.6694,11.0626 L20.6034,11.0626 C15.2854,11.0626 12.7734,13.5716 12.7734,18.8886 L12.7734,31.8816 C12.7734,37.0526 14.6944,39.2666 18.0894,41.7776 L32.4144,52.1136 C39.9464,57.5756 42.3104,62.4506 42.3104,71.3096" id="Fill-2"></path>
                    <path d="M94.7329,86.3754 C94.7329,99.2194 88.3819,105.5714 75.5369,105.5714 L71.8449,105.5714 C58.9959,105.5714 52.6459,99.2194 52.6459,86.3754 L52.6459,1.3164 L64.4629,1.3164 L64.4629,86.9664 C64.4629,92.2794 66.9709,94.7924 72.2869,94.7924 L75.0949,94.7924 C80.4079,94.7924 82.9219,92.2794 82.9219,86.9664 L82.9219,1.3164 L94.7329,1.3164 L94.7329,86.3754 Z" id="Fill-4"></path>
                    <path d="M127.369,12.0957 L117.626,12.0957 L117.626,50.7837 L126.485,50.7837 C132.387,50.7837 135.195,47.9787 135.195,42.0717 L135.195,19.9217 C135.195,14.6057 132.685,12.0957 127.369,12.0957 M147.156,69.8337 L147.156,104.6867 L135.344,104.6867 L135.344,70.2747 C135.344,64.0747 132.536,61.2667 126.336,61.2667 L117.626,61.2667 L117.626,104.6867 L105.809,104.6867 L105.809,1.3157 L127.811,1.3157 C140.661,1.3157 147.012,7.6647 147.012,20.5127 L147.012,39.7107 C147.012,49.0117 143.762,53.5917 137.854,55.9537 C144.353,57.7257 147.156,61.8577 147.156,69.8337" id="Fill-6"></path>
                    <path d="M179.4982,60.5319 L179.4982,49.7499 L200.6162,49.7499 L200.6162,86.3749 C200.6162,99.2199 194.2672,105.5709 181.4172,105.5709 L176.9882,105.5709 C164.1382,105.5709 157.7892,99.2199 157.7892,86.3749 L157.7892,19.6259 C157.7892,6.7799 164.1382,0.4279 176.9882,0.4279 L181.4172,0.4279 C194.1172,0.4279 200.3182,6.7799 200.3182,19.3309 L200.3182,33.5069 L188.7992,33.5069 L188.7992,19.0349 C188.7992,13.7179 186.2912,11.2079 180.9732,11.2079 L177.4302,11.2079 C172.1142,11.2079 169.6062,13.7179 169.6062,19.0349 L169.6062,86.9659 C169.6062,92.2789 172.1142,94.7929 177.4302,94.7929 L181.2682,94.7929 C186.5842,94.7929 189.0942,92.2789 189.0942,86.9659 L189.0942,60.5319 L179.4982,60.5319 Z" id="Fill-8"></path>
                    <polygon id="Fill-10" points="243.7367 1.3156 243.7367 12.2426 223.0607 12.2426 223.0607 46.5036 242.9967 46.5036 242.9967 57.2836 223.0607 57.2836 223.0607 93.7596 244.0297 93.7596 244.0297 104.6866 211.2497 104.6866 211.2497 1.3156"></polygon>
                </g>
            </g>
            <g id="Page-1" transform="translate(785.000000, 91.000000)" fill="#FEFEFE">
                <path d="M0,0.0002 L0,218.0002 L144,218.0002 L144,109.0002 L109,109.0002 L109,72.0002 L54,72.0002 L54,55.0002 L109,55.0002 L109,37.0002 L35,37.0002 L35,92.0002 L89,92.0002 L89,109.0002 L35,109.0002 L35,181.0002 L109,181.0002 L109,127.0002 L126,127.0002 L126,200.0002 L17,200.0002 L17,19.0002 L126,19.0002 L126,86.9992 L144,86.9992 L144,0.0002 L0,0.0002 Z M54,164.0002 L89,164.0002 L89,127.0002 L54,127.0002 L54,164.0002 Z" id="Fill-1"></path>
                <g id="Group-12" transform="translate(185.000000, 56.000000)">
                    <path d="M42.3104,71.3096 L42.3104,86.3746 C42.3104,99.2206 35.9594,105.5706 23.1114,105.5706 L19.8614,105.5706 C7.1644,105.5706 0.9604,99.2206 0.9604,86.6696 L0.9604,64.9586 L12.4784,64.9586 L12.4784,87.1116 C12.4784,92.4276 14.9904,94.9376 20.3064,94.9376 L22.6694,94.9376 C27.9834,94.9376 30.4954,92.4276 30.4954,87.1116 L30.4954,71.6076 C30.4954,66.4406 28.7244,64.2236 25.3284,61.7136 L10.8564,51.2286 C3.1754,45.7626 0.9604,40.4486 0.9604,32.0306 L0.9604,19.6266 C0.9604,6.7786 7.3094,0.4296 20.1574,0.4296 L23.1114,0.4296 C35.8114,0.4296 42.0124,6.7786 42.0124,19.3306 L42.0124,37.9366 L30.4954,37.9366 L30.4954,18.8886 C30.4954,13.5716 27.9834,11.0626 22.6694,11.0626 L20.6034,11.0626 C15.2854,11.0626 12.7734,13.5716 12.7734,18.8886 L12.7734,31.8816 C12.7734,37.0526 14.6944,39.2666 18.0894,41.7776 L32.4144,52.1136 C39.9464,57.5756 42.3104,62.4506 42.3104,71.3096" id="Fill-2"></path>
                    <path d="M94.7329,86.3754 C94.7329,99.2194 88.3819,105.5714 75.5369,105.5714 L71.8449,105.5714 C58.9959,105.5714 52.6459,99.2194 52.6459,86.3754 L52.6459,1.3164 L64.4629,1.3164 L64.4629,86.9664 C64.4629,92.2794 66.9709,94.7924 72.2869,94.7924 L75.0949,94.7924 C80.4079,94.7924 82.9219,92.2794 82.9219,86.9664 L82.9219,1.3164 L94.7329,1.3164 L94.7329,86.3754 Z" id="Fill-4"></path>
                    <path d="M127.369,12.0957 L117.626,12.0957 L117.626,50.7837 L126.485,50.7837 C132.387,50.7837 135.195,47.9787 135.195,42.0717 L135.195,19.9217 C135.195,14.6057 132.685,12.0957 127.369,12.0957 M147.156,69.8337 L147.156,104.6867 L135.344,104.6867 L135.344,70.2747 C135.344,64.0747 132.536,61.2667 126.336,61.2667 L117.626,61.2667 L117.626,104.6867 L105.809,104.6867 L105.809,1.3157 L127.811,1.3157 C140.661,1.3157 147.012,7.6647 147.012,20.5127 L147.012,39.7107 C147.012,49.0117 143.762,53.5917 137.854,55.9537 C144.353,57.7257 147.156,61.8577 147.156,69.8337" id="Fill-6"></path>
                    <path d="M179.4982,60.5319 L179.4982,49.7499 L200.6162,49.7499 L200.6162,86.3749 C200.6162,99.2199 194.2672,105.5709 181.4172,105.5709 L176.9882,105.5709 C164.1382,105.5709 157.7892,99.2199 157.7892,86.3749 L157.7892,19.6259 C157.7892,6.7799 164.1382,0.4279 176.9882,0.4279 L181.4172,0.4279 C194.1172,0.4279 200.3182,6.7799 200.3182,19.3309 L200.3182,33.5069 L188.7992,33.5069 L188.7992,19.0349 C188.7992,13.7179 186.2912,11.2079 180.9732,11.2079 L177.4302,11.2079 C172.1142,11.2079 169.6062,13.7179 169.6062,19.0349 L169.6062,86.9659 C169.6062,92.2789 172.1142,94.7929 177.4302,94.7929 L181.2682,94.7929 C186.5842,94.7929 189.0942,92.2789 189.0942,86.9659 L189.0942,60.5319 L179.4982,60.5319 Z" id="Fill-8"></path>
                    <polygon id="Fill-10" points="243.7367 1.3156 243.7367 12.2426 223.0607 12.2426 223.0607 46.5036 242.9967 46.5036 242.9967 57.2836 223.0607 57.2836 223.0607 93.7596 244.0297 93.7596 244.0297 104.6866 211.2497 104.6866 211.2497 1.3156"></polygon>
                </g>
            </g>
        </g>
    </g>
</svg>