<?xml version="1.0" encoding="UTF-8" standalone="no"?>
<svg width="2000px" height="800px" viewBox="0 0 2000 800" version="1.1" xmlns="http://www.w3.org/2000/svg" xmlns:xlink="http://www.w3.org/1999/xlink" style="background: #57646D;">
    <!-- Generator: Sketch 39.1 (31720) - http://www.bohemiancoding.com/sketch -->
    <title>Artboard</title>
    <desc>Created with Sketch.</desc>
    <defs>
        <polygon id="path-1" points="0 216.496552 171.560339 216.496552 171.560339 0.0541241379 0 0.0541241379"></polygon>
        <polygon id="path-3" points="0 218.482759 173.030759 218.482759 173.030759 0.0546206897 0 0.0546206897"></polygon>
    </defs>
    <g id="Page-1" stroke="none" stroke-width="1" fill="none" fill-rule="evenodd">
        <g id="Artboard">
            <rect id="Rectangle-Copy" fill="#F15622" x="0" y="400" width="2000" height="400"></rect>
            <rect id="Rectangle-Copy-2" fill="#0F0F0F" x="0" y="0" width="2000" height="400"></rect>
            <g id="Page-1" transform="translate(914.000000, 91.000000)">
                <path d="M108.109957,0.503448276 L118.37713,18.3148 L118.380139,18.3148 L124.01693,28.0706759 L134.309678,45.8805241 L150.980861,74.7482345 L150.940243,74.8143862 L145.289913,84.6048414 L124.027461,121.410759 L144.600922,121.410759 L155.566113,102.437241 L161.217948,92.6452828 L171.560339,74.7482345 L154.881635,45.8805241 L144.594904,28.0706759 L128.668374,0.503448276 L108.109957,0.503448276 Z M42.8934696,0.503448276 L0,74.7482345 L10.2762,92.5340276 L20.5839913,74.7542483 L20.5779739,74.7482345 L53.1741826,18.3148 L107.077974,18.3148 L96.8123043,0.503448276 L42.8934696,0.503448276 Z M15.8663565,102.211724 L16.6787043,103.615945 L26.9639304,121.425793 L42.8934696,148.993021 L128.668374,148.993021 L138.959617,131.177159 L118.386157,131.177159 L118.380139,131.180166 L53.1741826,131.180166 L47.5434087,121.425793 L37.2521652,103.615945 L26.1681304,84.4304414 L15.8663565,102.211724 Z" id="Fill-1" fill="#F05622"></path>
                <polygon id="Fill-2" fill="#F05622" points="139.753612 74.7491366 112.743047 121.411661 58.8227078 121.411661 48.5419948 103.616847 102.46083 103.616847 113.99316 83.6525572 36.9524991 83.6525572 31.8076296 74.7491366 58.8227078 28.0866124 112.743047 28.0866124 123.02376 45.8814262 69.1049252 45.8814262 57.5725948 65.8457159 134.632812 65.8457159"></polygon>
                <g id="Group-30" transform="translate(0.000000, 0.449324)">
                    <path d="M28.9892339,184.032894 C29.7429122,184.786121 30.2453643,185.916714 30.2453643,187.139018 L30.2453643,190.404508 C30.2453643,192.130466 28.8327817,193.542204 27.1057904,193.542204 L20.8251383,193.542204 C19.0665557,193.542204 17.68406,192.130466 17.68406,190.404508 L17.68406,186.482011 L22.3956774,186.482011 L22.3956774,188.834908 L25.5352513,188.834908 L25.5352513,187.139018 L18.9401904,180.644121 C18.1865122,179.890894 17.68406,178.760301 17.68406,177.537997 L17.68406,174.713018 C17.68406,172.987059 19.0665557,171.573818 20.8251383,171.573818 L27.1057904,171.573818 C28.8327817,171.573818 30.2453643,172.987059 30.2453643,174.713018 L30.2453643,178.635514 L25.5352513,178.635514 L25.5352513,176.282618 L22.3956774,176.282618 L22.3956774,177.537997 L28.9892339,184.032894 L28.9892339,184.032894 Z" id="Fill-3" fill="#FEFEFE"></path>
                    <polygon id="Fill-5" fill="#FEFEFE" points="51.8864609 171.574419 47.1447565 185.069371 47.1447565 193.542806 42.4346435 193.542806 42.4346435 185.069371 37.7546174 171.574419 42.7791391 171.574419 44.8205391 179.263054 46.8619391 171.574419"></polygon>
                    <polygon id="Fill-7" fill="#FEFEFE" points="71.9564165 193.542505 67.6238948 193.542505 64.1067296 182.307236 64.1067296 193.542505 59.3951122 193.542505 59.3951122 171.574119 64.3579557 171.574119 67.2463035 181.366077 67.2463035 171.574119 71.9564165 171.574119"></polygon>
                    <polygon id="Fill-9" fill="#FEFEFE" points="91.6812748 193.542505 80.6905096 193.542505 80.6905096 171.574119 91.6812748 171.574119 91.6812748 176.282919 85.402127 176.282919 85.402127 179.984408 90.11224 179.984408 90.11224 184.661636 85.402127 184.661636 85.402127 188.835208 91.6812748 188.835208"></polygon>
                    <mask id="mask-2" fill="white">
                        <use xlink:href="#path-1"></use>
                    </mask>
                    <g id="Clip-12"></g>
                    <path d="M104.309974,180.831752 L107.449548,180.831752 L107.449548,176.282317 L104.309974,176.282317 L104.309974,180.831752 Z M109.710583,185.477407 L112.159661,193.541903 L107.261504,193.541903 L105.188513,185.539048 L104.309974,185.539048 L104.309974,193.541903 L99.5998609,193.541903 L99.5998609,171.575021 L109.020087,171.575021 C110.747078,171.575021 112.159661,172.986759 112.159661,174.712717 L112.159661,182.401352 C112.159661,183.907807 111.091574,185.163186 109.710583,185.477407 L109.710583,185.477407 Z" id="Fill-11" fill="#FEFEFE" mask="url(#mask-2)"></path>
                    <path d="M133.456262,190.404959 C133.456262,192.129414 132.043679,193.542655 130.315183,193.542655 L124.034531,193.542655 C122.30754,193.542655 120.894957,192.129414 120.894957,190.404959 L120.894957,174.711966 C120.894957,172.98751 122.30754,171.574269 124.034531,171.574269 L130.315183,171.574269 C132.043679,171.574269 133.456262,172.98751 133.456262,174.711966 L133.456262,178.635966 L128.744644,178.635966 L128.744644,176.281566 L125.60507,176.281566 L125.60507,188.835359 L128.744644,188.835359 L128.744644,185.854021 L126.767931,185.854021 L126.767931,181.146724 L133.456262,181.146724 L133.456262,190.404959 Z" id="Fill-13" fill="#FEFEFE" mask="url(#mask-2)"></path>
                    <polygon id="Fill-14" fill="#FEFEFE" mask="url(#mask-2)" points="155.097358 171.574419 150.355654 185.069371 150.355654 193.542806 145.645541 193.542806 145.645541 185.069371 140.965515 171.574419 145.990037 171.574419 148.031437 179.263054 150.072837 171.574419"></polygon>
                    <path d="M22.0235017,205.042982 L21.5782148,205.042982 L21.5782148,208.828665 L22.0235017,208.828665 C22.2055278,208.828665 22.2867626,208.745975 22.2867626,208.564058 L22.2867626,205.307589 C22.2867626,205.125672 22.2055278,205.042982 22.0235017,205.042982 L22.0235017,205.042982 Z M21.5782148,216.374472 L18.136267,216.374472 L18.136267,202.210486 L22.6312583,202.210486 C24.675667,202.210486 25.6685365,203.201258 25.6685365,205.245948 L25.6685365,208.625699 C25.6685365,210.668886 24.675667,211.659658 22.6312583,211.659658 L21.5782148,211.659658 L21.5782148,216.374472 Z" id="Fill-15" fill="#F05622" mask="url(#mask-2)"></path>
                    <polygon id="Fill-16" fill="#F05622" mask="url(#mask-2)" points="31.837867 207.734305 31.837867 202.210636 35.2798148 202.210636 35.2798148 216.374622 31.837867 216.374622 31.837867 210.669036 31.0691452 210.669036 31.0691452 216.374622 27.6271974 216.374622 27.6271974 202.210636 31.0691452 202.210636 31.0691452 207.734305"></polygon>
                    <polygon id="Fill-17" fill="#F05622" mask="url(#mask-2)" points="41.7930391 202.210786 44.8919957 202.210786 42.6038826 211.275076 42.6038826 216.374772 39.1604304 216.374772 39.1604304 211.478041 36.8738217 202.210786 40.4376217 202.210786 41.0844913 206.439986"></polygon>
                    <path d="M53.6530165,211.296124 L53.6530165,213.46109 C53.6530165,215.504276 52.660147,216.496552 50.6157383,216.496552 L49.1986426,216.496552 C47.1542339,216.496552 46.1613643,215.504276 46.1613643,213.46109 L46.1613643,211.174345 L49.5025209,211.174345 L49.5025209,213.46109 C49.5025209,213.64451 49.5837557,213.724193 49.7657817,213.724193 L49.9884252,213.724193 C50.1704513,213.724193 50.2516861,213.64451 50.2516861,213.46109 L50.2516861,211.640414 C50.2516861,211.396855 50.1704513,211.275076 49.9688687,211.153297 L47.4174948,209.636317 C46.4456861,209.049972 46.1613643,208.28171 46.1613643,207.107517 L46.1613643,205.125972 C46.1613643,203.081283 47.1542339,202.089007 49.1986426,202.089007 L50.5751209,202.089007 C52.6195296,202.089007 53.6123991,203.081283 53.6123991,205.125972 L53.6123991,207.208248 L50.2712426,207.208248 L50.2712426,205.125972 C50.2712426,204.942552 50.1915122,204.861366 50.0094861,204.861366 L49.8063991,204.861366 C49.624373,204.861366 49.5431383,204.942552 49.5431383,205.125972 L49.5431383,206.743683 C49.5431383,206.987241 49.624373,207.107517 49.82746,207.229297 L52.3983904,208.765821 C53.3491383,209.353669 53.6530165,210.123434 53.6530165,211.296124" id="Fill-18" fill="#F05622" mask="url(#mask-2)"></path>
                    <polygon id="Fill-19" fill="#F05622" mask="url(#mask-2)" points="55.6924609 216.374772 59.1344087 216.374772 59.1344087 202.210786 55.6924609 202.210786"></polygon>
                    <path d="M68.8493365,209.717804 L68.8493365,213.46139 C68.8493365,215.504577 67.856467,216.496852 65.8120583,216.496852 L64.2731104,216.496852 C62.2287017,216.496852 61.2358322,215.504577 61.2358322,213.46139 L61.2358322,205.12477 C61.2358322,203.081583 62.2287017,202.089308 64.2731104,202.089308 L65.8120583,202.089308 C67.856467,202.089308 68.8087191,203.081583 68.8087191,205.12477 L68.8087191,208.44288 L65.4073887,208.44288 L65.4073887,205.184908 C65.4073887,205.00299 65.3261539,204.923308 65.1441278,204.923308 L64.9410409,204.923308 C64.7590148,204.923308 64.6792843,205.00299 64.6792843,205.184908 L64.6792843,213.399749 C64.6792843,213.581666 64.7590148,213.662852 64.9410409,213.662852 L65.1847452,213.662852 C65.3667713,213.662852 65.4480061,213.581666 65.4480061,213.399749 L65.4480061,209.717804 L68.8493365,209.717804 Z" id="Fill-20" fill="#F05622" mask="url(#mask-2)"></path>
                    <path d="M73.7641913,211.740994 L74.736,211.740994 L74.2500957,206.217326 L73.7641913,211.740994 Z M78.542,216.374622 L75.1602261,216.374622 L74.9992609,214.614084 L73.5009304,214.614084 L73.3580174,216.374622 L70.3824174,216.374622 L72.2463043,202.210636 L76.6796174,202.210636 L78.542,216.374622 Z" id="Fill-21" fill="#F05622" mask="url(#mask-2)"></path>
                    <polygon id="Fill-22" fill="#F05622" mask="url(#mask-2)" points="83.7195139 202.210786 83.7195139 213.441545 86.0888617 213.441545 86.0888617 216.374772 80.2775661 216.374772 80.2775661 202.210786"></polygon>
                    <polygon id="Fill-23" fill="#F05622" mask="url(#mask-2)" points="92.9035574 216.374622 92.9035574 205.143863 91.102853 205.143863 91.102853 202.210636 98.1477139 202.210636 98.1477139 205.143863 96.3455052 205.143863 96.3455052 216.374622"></polygon>
                    <polygon id="Fill-24" fill="#F05622" mask="url(#mask-2)" points="104.297789 207.734305 104.297789 202.210636 107.739737 202.210636 107.739737 216.374622 104.297789 216.374622 104.297789 210.669036 103.529067 210.669036 103.529067 216.374622 100.087119 216.374622 100.087119 202.210636 103.529067 202.210636 103.529067 207.734305"></polygon>
                    <polygon id="Fill-25" fill="#F05622" mask="url(#mask-2)" points="115.932866 202.210786 115.932866 205.144014 113.301762 205.144014 113.301762 207.734455 115.832075 207.734455 115.832075 210.669186 113.301762 210.669186 113.301762 213.441545 115.973483 213.441545 115.973483 216.374772 109.859814 216.374772 109.859814 202.210786"></polygon>
                    <path d="M121.881208,205.084177 L121.435921,205.084177 L121.435921,208.503018 L121.881208,208.503018 C122.063234,208.503018 122.144469,208.423335 122.144469,208.241418 L122.144469,205.34728 C122.144469,205.165363 122.063234,205.084177 121.881208,205.084177 M125.605973,211.88277 L125.605973,216.375073 L122.164025,216.375073 L122.164025,211.579073 C122.164025,211.397156 122.084295,211.317473 121.900764,211.317473 L121.435921,211.317473 L121.435921,216.375073 L117.993973,216.375073 L117.993973,202.211087 L122.549138,202.211087 C124.593547,202.211087 125.586417,203.201859 125.586417,205.245046 L125.586417,207.552839 C125.586417,208.887901 125.019277,209.556935 124.045964,209.878673 C125.14113,210.141777 125.605973,210.750673 125.605973,211.88277" id="Fill-26" fill="#F05622" mask="url(#mask-2)"></path>
                    <path d="M130.662086,211.740994 L131.633895,211.740994 L131.14799,206.217326 L130.662086,211.740994 Z M135.441399,216.374622 L132.059625,216.374622 L131.897156,214.614084 L130.398825,214.614084 L130.257417,216.374622 L127.281817,216.374622 L129.144199,202.210636 L133.577512,202.210636 L135.441399,216.374622 Z" id="Fill-27" fill="#F05622" mask="url(#mask-2)"></path>
                    <path d="M141.063147,205.042982 L140.61786,205.042982 L140.61786,208.828665 L141.063147,208.828665 C141.245173,208.828665 141.326408,208.745975 141.326408,208.564058 L141.326408,205.307589 C141.326408,205.125672 141.245173,205.042982 141.063147,205.042982 L141.063147,205.042982 Z M140.61786,216.374472 L137.175912,216.374472 L137.175912,202.210486 L141.669399,202.210486 C143.715312,202.210486 144.706677,203.201258 144.706677,205.245948 L144.706677,208.625699 C144.706677,210.668886 143.715312,211.659658 141.669399,211.659658 L140.61786,211.659658 L140.61786,216.374472 Z" id="Fill-28" fill="#F05622" mask="url(#mask-2)"></path>
                    <polygon id="Fill-29" fill="#F05622" mask="url(#mask-2)" points="150.857655 202.210786 153.956611 202.210786 151.666994 211.275076 151.666994 216.374772 148.22655 216.374772 148.22655 211.478041 145.936933 202.210786 149.502237 202.210786 150.149107 206.439986"></polygon>
                </g>
            </g>
            <g id="Page-1" transform="translate(913.000000, 490.000000)">
                <path d="M109.036552,1.51724138 L119.391724,19.492 L119.394759,19.492 L125.079862,29.3373793 L135.460828,47.3106207 L152.274897,76.4431724 L152.233931,76.509931 L146.535172,86.3902069 L125.090483,123.533793 L145.840276,123.533793 L156.899448,104.386207 L162.599724,94.5044138 L173.030759,76.4431724 L156.209103,47.3106207 L145.834207,29.3373793 L129.771172,1.51724138 L109.036552,1.51724138 Z M43.2611034,1.51724138 L0,76.4431724 L10.3642759,94.3921379 L20.7604138,76.4492414 L20.7543448,76.4431724 L53.629931,19.492 L107.995724,19.492 L97.642069,1.51724138 L43.2611034,1.51724138 Z M16.0023448,104.158621 L16.8216552,105.575724 L27.1950345,123.548966 L43.2611034,151.369103 L129.771172,151.369103 L140.150621,133.389793 L119.400828,133.389793 L119.394759,133.392828 L53.629931,133.392828 L47.9508966,123.548966 L37.5714483,105.575724 L26.3924138,86.2142069 L16.0023448,104.158621 Z" id="Fill-1" fill="#FEFEFE"></path>
                <polygon id="Fill-2" fill="#FEFEFE" points="140.951421 76.4440828 113.709352 123.534703 59.326869 123.534703 48.9580414 105.576634 103.339007 105.576634 114.970179 85.4291862 37.2692138 85.4291862 32.0802483 76.4440828 59.326869 29.3534621 113.709352 29.3534621 124.078179 47.311531 69.6972138 47.311531 58.0660414 67.4589793 135.786731 67.4589793"></polygon>
                <g id="Group-30" transform="translate(0.000000, 1.462621)">
                    <path d="M29.2376966,185.721269 C29.9978345,186.481407 30.5045931,187.622372 30.5045931,188.85589 L30.5045931,192.151338 C30.5045931,193.893131 29.0799034,195.317821 27.3381103,195.317821 L21.0036276,195.317821 C19.2299724,195.317821 17.8356276,193.893131 17.8356276,192.151338 L17.8356276,188.192855 L22.5876276,188.192855 L22.5876276,190.567338 L25.7541103,190.567338 L25.7541103,188.85589 L19.1025241,182.301407 C18.3423862,181.541269 17.8356276,180.400303 17.8356276,179.166786 L17.8356276,176.31589 C17.8356276,174.574097 19.2299724,173.14789 21.0036276,173.14789 L27.3381103,173.14789 C29.0799034,173.14789 30.5045931,174.574097 30.5045931,176.31589 L30.5045931,180.274372 L25.7541103,180.274372 L25.7541103,177.89989 L22.5876276,177.89989 L22.5876276,179.166786 L29.2376966,185.721269 L29.2376966,185.721269 Z" id="Fill-3" fill="#181818"></path>
                    <polygon id="Fill-5" fill="#181818" points="52.3311724 173.148497 47.5488276 186.767255 47.5488276 195.318428 42.7983448 195.318428 42.7983448 186.767255 38.0782069 173.148497 43.1457931 173.148497 45.2046897 180.907669 47.2635862 173.148497"></polygon>
                    <polygon id="Fill-7" fill="#181818" points="72.5731448 195.318124 68.2034897 195.318124 64.6561793 183.979779 64.6561793 195.318124 59.9041793 195.318124 59.9041793 173.148193 64.9095586 173.148193 67.8226621 183.029986 67.8226621 173.148193 72.5731448 173.148193"></polygon>
                    <polygon id="Fill-9" fill="#181818" points="92.4670621 195.318124 81.3820966 195.318124 81.3820966 173.148193 92.4670621 173.148193 92.4670621 177.900193 86.1340966 177.900193 86.1340966 181.635641 90.8845793 181.635641 90.8845793 186.355779 86.1340966 186.355779 86.1340966 190.567641 92.4670621 190.567641"></polygon>
                    <mask id="mask-4" fill="white">
                        <use xlink:href="#path-3"></use>
                    </mask>
                    <g id="Clip-12"></g>
                    <path d="M105.204,182.490759 L108.370483,182.490759 L108.370483,177.899586 L105.204,177.899586 L105.204,182.490759 Z M110.650897,187.179034 L113.120966,195.317517 L108.180828,195.317517 L106.090069,187.241241 L105.204,187.241241 L105.204,195.317517 L100.453517,195.317517 L100.453517,173.149103 L109.954483,173.149103 C111.696276,173.149103 113.120966,174.573793 113.120966,176.315586 L113.120966,184.074759 C113.120966,185.595034 112.043724,186.861931 110.650897,187.179034 L110.650897,187.179034 Z" id="Fill-11" fill="#181818" mask="url(#mask-4)"></path>
                    <path d="M134.600097,192.151793 C134.600097,193.892069 133.175407,195.318276 131.432097,195.318276 L125.097614,195.318276 C123.355821,195.318276 121.931131,193.892069 121.931131,192.151793 L121.931131,176.314828 C121.931131,174.574552 123.355821,173.148345 125.097614,173.148345 L131.432097,173.148345 C133.175407,173.148345 134.600097,174.574552 134.600097,176.314828 L134.600097,180.274828 L129.848097,180.274828 L129.848097,177.898828 L126.681614,177.898828 L126.681614,190.567793 L129.848097,190.567793 L129.848097,187.559103 L127.854441,187.559103 L127.854441,182.808621 L134.600097,182.808621 L134.600097,192.151793 Z" id="Fill-13" fill="#181818" mask="url(#mask-4)"></path>
                    <polygon id="Fill-14" fill="#181818" mask="url(#mask-4)" points="156.426676 173.148497 151.644331 186.767255 151.644331 195.318428 146.893848 195.318428 146.893848 186.767255 142.17371 173.148497 147.241297 173.148497 149.300193 180.907669 151.35909 173.148497"></polygon>
                    <path d="M22.2122621,206.92411 L21.7631586,206.92411 L21.7631586,210.744524 L22.2122621,210.744524 C22.3958483,210.744524 22.4777793,210.661076 22.4777793,210.47749 L22.4777793,207.191145 C22.4777793,207.007559 22.3958483,206.92411 22.2122621,206.92411 L22.2122621,206.92411 Z M21.7631586,218.359559 L18.2917103,218.359559 L18.2917103,204.065628 L22.8252276,204.065628 C24.8871586,204.065628 25.8885379,205.06549 25.8885379,207.128938 L25.8885379,210.539697 C25.8885379,212.601628 24.8871586,213.60149 22.8252276,213.60149 L21.7631586,213.60149 L21.7631586,218.359559 Z" id="Fill-15" fill="#FEFEFE" mask="url(#mask-4)"></path>
                    <polygon id="Fill-16" fill="#FEFEFE" mask="url(#mask-4)" points="32.1107448 209.640124 32.1107448 204.065779 35.5821931 204.065779 35.5821931 218.35971 32.1107448 218.35971 32.1107448 212.601779 31.3354345 212.601779 31.3354345 218.35971 27.8639862 218.35971 27.8639862 204.065779 31.3354345 204.065779 31.3354345 209.640124"></polygon>
                    <polygon id="Fill-17" fill="#FEFEFE" mask="url(#mask-4)" points="42.1512414 204.065931 45.2767586 204.065931 42.9690345 213.213379 42.9690345 218.359862 39.496069 218.359862 39.496069 213.418207 37.1898621 204.065931 40.7842069 204.065931 41.4366207 208.333931"></polygon>
                    <path d="M54.112869,213.234621 L54.112869,215.419448 C54.112869,217.481379 53.1114897,218.482759 51.0495586,218.482759 L49.6203172,218.482759 C47.5583862,218.482759 46.5570069,217.481379 46.5570069,215.419448 L46.5570069,213.111724 L49.9268,213.111724 L49.9268,215.419448 C49.9268,215.604552 50.008731,215.684966 50.1923172,215.684966 L50.416869,215.684966 C50.6004552,215.684966 50.6823862,215.604552 50.6823862,215.419448 L50.6823862,213.582069 C50.6823862,213.336276 50.6004552,213.213379 50.3971448,213.090483 L47.8239034,211.559586 C46.8437655,210.967862 46.5570069,210.192552 46.5570069,209.007586 L46.5570069,207.007862 C46.5570069,204.944414 47.5583862,203.943034 49.6203172,203.943034 L51.0085931,203.943034 C53.0705241,203.943034 54.0719034,204.944414 54.0719034,207.007862 L54.0719034,209.109241 L50.7021103,209.109241 L50.7021103,207.007862 C50.7021103,206.822759 50.6216966,206.740828 50.4381103,206.740828 L50.2332828,206.740828 C50.0496966,206.740828 49.9677655,206.822759 49.9677655,207.007862 L49.9677655,208.640414 C49.9677655,208.886207 50.0496966,209.007586 50.2545241,209.130483 L52.8474897,210.681103 C53.8063862,211.274345 54.112869,212.051172 54.112869,213.234621" id="Fill-18" fill="#FEFEFE" mask="url(#mask-4)"></path>
                    <polygon id="Fill-19" fill="#FEFEFE" mask="url(#mask-4)" points="56.1697931 218.359862 59.6412414 218.359862 59.6412414 204.065931 56.1697931 204.065931"></polygon>
                    <path d="M69.4394345,211.641821 L69.4394345,215.419752 C69.4394345,217.481683 68.4380552,218.483062 66.3761241,218.483062 L64.8239862,218.483062 C62.7620552,218.483062 61.7606759,217.481683 61.7606759,215.419752 L61.7606759,207.006648 C61.7606759,204.944717 62.7620552,203.943338 64.8239862,203.943338 L66.3761241,203.943338 C68.4380552,203.943338 69.398469,204.944717 69.398469,207.006648 L69.398469,210.3552 L65.9679862,210.3552 L65.9679862,207.067338 C65.9679862,206.883752 65.8860552,206.803338 65.702469,206.803338 L65.4976414,206.803338 C65.3140552,206.803338 65.2336414,206.883752 65.2336414,207.067338 L65.2336414,215.357545 C65.2336414,215.541131 65.3140552,215.623062 65.4976414,215.623062 L65.7434345,215.623062 C65.9270207,215.623062 66.0089517,215.541131 66.0089517,215.357545 L66.0089517,211.641821 L69.4394345,211.641821 Z" id="Fill-20" fill="#FEFEFE" mask="url(#mask-4)"></path>
                    <path d="M74.3964138,213.683572 L75.3765517,213.683572 L74.8864828,208.109228 L74.3964138,213.683572 Z M79.2151724,218.35971 L75.8044138,218.35971 L75.642069,216.583021 L74.1308966,216.583021 L73.9867586,218.35971 L70.9856552,218.35971 L72.8655172,204.065779 L77.3368276,204.065779 L79.2151724,218.35971 Z" id="Fill-21" fill="#FEFEFE" mask="url(#mask-4)"></path>
                    <polygon id="Fill-22" fill="#FEFEFE" mask="url(#mask-4)" points="84.4370621 204.065931 84.4370621 215.399724 86.8267172 215.399724 86.8267172 218.359862 80.9656138 218.359862 80.9656138 204.065931"></polygon>
                    <polygon id="Fill-23" fill="#FEFEFE" mask="url(#mask-4)" points="93.6998207 218.35971 93.6998207 207.025917 91.8836828 207.025917 91.8836828 204.065779 98.9889241 204.065779 98.9889241 207.025917 97.171269 207.025917 97.171269 218.35971"></polygon>
                    <polygon id="Fill-24" fill="#FEFEFE" mask="url(#mask-4)" points="105.19171 209.640124 105.19171 204.065779 108.663159 204.065779 108.663159 218.35971 105.19171 218.35971 105.19171 212.601779 104.4164 212.601779 104.4164 218.35971 100.944952 218.35971 100.944952 204.065779 104.4164 204.065779 104.4164 209.640124"></polygon>
                    <polygon id="Fill-25" fill="#FEFEFE" mask="url(#mask-4)" points="116.92651 204.065931 116.92651 207.026069 114.272855 207.026069 114.272855 209.640276 116.824855 209.640276 116.824855 212.601931 114.272855 212.601931 114.272855 215.399724 116.967476 215.399724 116.967476 218.359862 110.801407 218.359862 110.801407 204.065931"></polygon>
                    <path d="M122.925834,206.965683 L122.476731,206.965683 L122.476731,210.41589 L122.925834,210.41589 C123.109421,210.41589 123.191352,210.335476 123.191352,210.15189 L123.191352,207.2312 C123.191352,207.047614 123.109421,206.965683 122.925834,206.965683 M126.682524,213.826648 L126.682524,218.360166 L123.211076,218.360166 L123.211076,213.520166 C123.211076,213.336579 123.130662,213.256166 122.945559,213.256166 L122.476731,213.256166 L122.476731,218.360166 L119.005283,218.360166 L119.005283,204.066234 L123.59949,204.066234 C125.661421,204.066234 126.6628,205.066097 126.6628,207.128028 L126.6628,209.456993 C126.6628,210.804303 126.0908,211.479476 125.109145,211.804166 C126.213697,212.069683 126.682524,212.684166 126.682524,213.826648" id="Fill-26" fill="#FEFEFE" mask="url(#mask-4)"></path>
                    <path d="M131.781972,213.683572 L132.76211,213.683572 L132.272041,208.109228 L131.781972,213.683572 Z M136.602248,218.35971 L133.19149,218.35971 L133.027628,216.583021 L131.516455,216.583021 L131.373834,218.35971 L128.372731,218.35971 L130.251076,204.065779 L134.722386,204.065779 L136.602248,218.35971 Z" id="Fill-27" fill="#FEFEFE" mask="url(#mask-4)"></path>
                    <path d="M142.272179,206.92411 L141.823076,206.92411 L141.823076,210.744524 L142.272179,210.744524 C142.455766,210.744524 142.537697,210.661076 142.537697,210.47749 L142.537697,207.191145 C142.537697,207.007559 142.455766,206.92411 142.272179,206.92411 L142.272179,206.92411 Z M141.823076,218.359559 L138.351628,218.359559 L138.351628,204.065628 L142.883628,204.065628 C144.947076,204.065628 145.946938,205.06549 145.946938,207.128938 L145.946938,210.539697 C145.946938,212.601628 144.947076,213.60149 142.883628,213.60149 L141.823076,213.60149 L141.823076,218.359559 Z" id="Fill-28" fill="#FEFEFE" mask="url(#mask-4)"></path>
                    <polygon id="Fill-29" fill="#FEFEFE" mask="url(#mask-4)" points="152.150634 204.065931 155.276152 204.065931 152.96691 213.213379 152.96691 218.359862 149.496979 218.359862 149.496979 213.418207 147.187738 204.065931 150.7836 204.065931 151.436014 208.333931"></polygon>
                </g>
            </g>
        </g>
    </g>
</svg>